<svg width="150" height="45" viewBox="0 0 150 45" fill="none" xmlns="http://www.w3.org/2000/svg">
<g clip-path="url(#clip0_648_3101)">
<path d="M137.597 0.89321H12.2433C11.7864 0.89321 11.3349 0.89321 10.8792 0.895419C10.4977 0.897628 10.1193 0.904045 9.73416 0.909446C8.89745 0.918174 8.06271 0.983422 7.23718 1.10462C6.41282 1.22846 5.61428 1.46194 4.86857 1.79715C4.12378 2.1352 3.44324 2.57446 2.85164 3.09899C2.25694 3.62205 1.7612 4.22663 1.38351 4.8895C1.00477 5.55104 0.742149 6.25994 0.60472 6.99173C0.465985 7.72259 0.391331 8.46187 0.381427 9.20295C0.369863 9.54159 0.368642 9.88136 0.362549 10.22V35.7499C0.368642 36.0929 0.369863 36.4251 0.381427 36.7682C0.391334 37.5092 0.465988 38.2485 0.60472 38.9793C0.741769 39.7115 1.0044 40.4208 1.38351 41.0826C1.76103 41.7433 2.25683 42.3455 2.85164 42.8656C3.44099 43.3925 4.12197 43.832 4.86857 44.1675C5.61427 44.5036 6.41273 44.7385 7.23718 44.8642C8.06285 44.9844 8.8975 45.0497 9.73416 45.0595C10.1193 45.067 10.4977 45.0713 10.8792 45.0713C11.3349 45.0735 11.7864 45.0735 12.2433 45.0735H137.597C138.045 45.0735 138.5 45.0735 138.948 45.0713C139.327 45.0713 139.717 45.067 140.096 45.0595C140.932 45.0502 141.765 44.985 142.589 44.8642C143.416 44.7376 144.217 44.5028 144.966 44.1675C145.712 43.8318 146.393 43.3923 146.981 42.8656C147.575 42.3434 148.072 41.7417 148.454 41.0826C148.83 40.4203 149.09 39.7111 149.225 38.9793C149.364 38.2484 149.441 37.5093 149.456 36.7682C149.461 36.4251 149.461 36.0929 149.461 35.7499C149.471 35.3487 149.471 34.9496 149.471 34.5418V11.4259C149.471 11.0215 149.471 10.6202 149.461 10.22C149.461 9.88136 149.461 9.54159 149.456 9.20291C149.441 8.46176 149.364 7.72264 149.225 6.99168C149.09 6.26032 148.83 5.55147 148.454 4.88945C147.685 3.56081 146.465 2.47931 144.966 1.79705C144.217 1.46266 143.416 1.22925 142.589 1.10452C141.765 0.982789 140.932 0.917518 140.096 0.909292C139.717 0.903902 139.327 0.897429 138.948 0.895275C138.5 0.893066 138.045 0.893066 137.597 0.893066V0.89321Z" fill="#A6A6A6"/>
<path d="M10.7781 44.1103C10.3978 44.1103 10.0267 44.1059 9.64939 44.0984C8.86774 44.0894 8.08791 44.0292 7.31631 43.9183C6.59683 43.8086 5.89985 43.6046 5.24835 43.313C4.60283 43.0238 4.01406 42.6446 3.5046 42.1899C2.98776 41.7406 2.55747 41.2194 2.23078 40.6471C1.90049 40.0711 1.67191 39.4537 1.55301 38.8164C1.42459 38.1315 1.35512 37.4391 1.34518 36.745C1.33726 36.512 1.3269 35.7362 1.3269 35.7362V10.2161C1.3269 10.2161 1.33794 9.45232 1.34524 9.22791C1.35476 8.53489 1.42383 7.84351 1.55186 7.15977C1.67098 6.5207 1.89974 5.90149 2.23021 5.32358C2.5557 4.75167 2.9836 4.23014 3.49732 3.77921C4.01046 3.32399 4.60112 2.94284 5.24774 2.64965C5.89774 2.35897 6.5934 2.15641 7.31143 2.04874C8.08557 1.93668 8.8681 1.87609 9.65246 1.86749L10.7787 1.854H139.056L140.195 1.86803C140.973 1.87621 141.748 1.93625 142.515 2.04765C143.24 2.15667 143.943 2.36065 144.601 2.65288C145.896 3.24375 146.95 4.17855 147.615 5.32628C147.94 5.9002 148.166 6.51435 148.283 7.1479C148.413 7.83726 148.485 8.53407 148.5 9.23277C148.504 9.54564 148.504 9.8817 148.504 10.2161C148.514 10.6304 148.514 11.0247 148.514 11.4223V34.543C148.514 34.9444 148.514 35.336 148.504 35.7308C148.504 36.0901 148.504 36.4192 148.499 36.7579C148.484 37.4441 148.413 38.1285 148.286 38.8055C148.169 39.4474 147.942 40.0697 147.612 40.6504C147.283 41.2165 146.855 41.7332 146.344 42.1813C145.834 42.6384 145.244 43.0198 144.597 43.3109C143.941 43.6047 143.24 43.8095 142.515 43.9183C141.744 44.0298 140.964 44.09 140.182 44.0984C139.816 44.1059 139.433 44.1103 139.062 44.1103L137.709 44.1125L10.7781 44.1103Z" fill="black"/>
<path d="M36.5874 23.3151C36.5993 22.3932 36.8441 21.4893 37.2992 20.6875C37.7543 19.8857 38.4048 19.212 39.1902 18.7292C38.6913 18.0166 38.0331 17.4301 37.2678 17.0164C36.5026 16.6027 35.6514 16.3732 34.782 16.346C32.9272 16.1513 31.1292 17.4558 30.184 17.4558C29.2206 17.4558 27.7654 16.3653 26.1984 16.3975C25.1848 16.4303 24.197 16.725 23.3312 17.2531C22.4654 17.7811 21.7512 18.5244 21.258 19.4105C19.1219 23.1089 20.7153 28.5442 22.7615 31.5337C23.7852 32.9975 24.9817 34.6327 26.5473 34.5747C28.0793 34.5112 28.6515 33.5978 30.5008 33.5978C32.3329 33.5978 32.8697 34.5747 34.4671 34.5378C36.111 34.5112 37.1468 33.0675 38.1346 31.5898C38.8702 30.5467 39.4362 29.3939 39.8117 28.1741C38.8566 27.7701 38.0416 27.0939 37.4682 26.2299C36.8949 25.3658 36.5885 24.3521 36.5874 23.3151Z" fill="white"/>
<path d="M33.5702 14.3798C34.4666 13.3038 34.9082 11.9208 34.8012 10.5244C33.4318 10.6682 32.1669 11.3227 31.2584 12.3575C30.8143 12.863 30.4741 13.451 30.2573 14.0881C30.0406 14.7251 29.9515 15.3987 29.9952 16.0701C30.6801 16.0772 31.3578 15.9287 31.977 15.6359C32.5963 15.3432 33.141 14.9137 33.5702 14.3798Z" fill="white"/>
<path d="M55.9531 30.8689H50.725L49.4695 34.5761H47.2551L52.2071 20.8604H54.5078L59.4597 34.5761H57.2075L55.9531 30.8689ZM51.2665 29.1582H55.4106L53.3677 23.1417H53.3105L51.2665 29.1582Z" fill="white"/>
<path d="M70.1542 29.5767C70.1542 32.6842 68.491 34.6807 65.9811 34.6807C65.3452 34.714 64.7129 34.5675 64.1565 34.2581C63.6 33.9487 63.142 33.4888 62.8347 32.9312H62.7872V37.8842H60.7346V24.5762H62.7215V26.2394H62.7592C63.0806 25.6845 63.5464 25.227 64.1071 24.9157C64.6678 24.6044 65.3023 24.4509 65.9433 24.4716C68.4813 24.4716 70.1542 26.4778 70.1542 29.5767ZM68.0445 29.5767C68.0445 27.5521 66.9982 26.2211 65.4018 26.2211C63.8335 26.2211 62.7786 27.5802 62.7786 29.5767C62.7786 31.5916 63.8335 32.9409 65.4018 32.9409C66.9982 32.9409 68.0445 31.6196 68.0445 29.5767Z" fill="white"/>
<path d="M81.1606 29.5767C81.1606 32.6842 79.4974 34.6807 76.9874 34.6807C76.3516 34.714 75.7193 34.5675 75.1628 34.2581C74.6064 33.9487 74.1483 33.4888 73.8411 32.9312H73.7936V37.8842H71.741V24.5762H73.7278V26.2394H73.7655C74.0869 25.6844 74.5527 25.227 75.1134 24.9157C75.6741 24.6044 76.3087 24.4509 76.9496 24.4716C79.4877 24.4716 81.1606 26.4778 81.1606 29.5767ZM79.0508 29.5767C79.0508 27.5521 78.0045 26.2211 76.4082 26.2211C74.8399 26.2211 73.785 27.5802 73.785 29.5767C73.785 31.5915 74.8399 32.9409 76.4082 32.9409C78.0046 32.9409 79.0508 31.6196 79.0508 29.5767H79.0508Z" fill="white"/>
<path d="M88.4347 30.7547C88.5868 32.1149 89.9081 33.0079 91.7137 33.0079C93.4438 33.0079 94.6885 32.1149 94.6885 30.8884C94.6885 29.8238 93.9378 29.1864 92.1602 28.7495L90.3827 28.3213C87.8641 27.713 86.6949 26.5351 86.6949 24.6238C86.6949 22.2573 88.7572 20.6318 91.6856 20.6318C94.5839 20.6318 96.5707 22.2573 96.6376 24.6238H94.5655C94.4415 23.255 93.31 22.4288 91.6565 22.4288C90.003 22.4288 88.8715 23.2648 88.8715 24.4814C88.8715 25.4511 89.5942 26.0217 91.362 26.4585L92.8732 26.8296C95.6873 27.4951 96.8565 28.6255 96.8565 30.6317C96.8565 33.1977 94.8125 34.8049 91.5616 34.8049C88.5199 34.8049 86.4662 33.2355 86.3335 30.7546L88.4347 30.7547Z" fill="white"/>
<path d="M101.287 22.21V24.5765H103.188V26.2019H101.287V31.7148C101.287 32.5712 101.667 32.9703 102.503 32.9703C102.729 32.9663 102.954 32.9505 103.178 32.9228V34.5386C102.803 34.6088 102.421 34.6406 102.038 34.6335C100.014 34.6335 99.2242 33.8731 99.2242 31.9337V26.2019H97.7703V24.5765H99.2242V22.21H101.287Z" fill="white"/>
<path d="M104.289 29.5771C104.289 26.4307 106.142 24.4536 109.032 24.4536C111.931 24.4536 113.776 26.4307 113.776 29.5771C113.776 32.732 111.941 34.7005 109.032 34.7005C106.124 34.7005 104.289 32.732 104.289 29.5771ZM111.684 29.5771C111.684 27.4187 110.695 26.1449 109.032 26.1449C107.369 26.1449 106.381 27.4285 106.381 29.5771C106.381 31.744 107.369 33.0082 109.032 33.0082C110.695 33.0082 111.684 31.744 111.684 29.5771H111.684Z" fill="white"/>
<path d="M115.468 24.5766H117.426V26.2786H117.473C117.606 25.7471 117.917 25.2773 118.355 24.9483C118.793 24.6192 119.331 24.451 119.879 24.472C120.115 24.4711 120.351 24.4968 120.582 24.5485V26.4685C120.283 26.3772 119.972 26.3353 119.66 26.3444C119.362 26.3323 119.064 26.3849 118.788 26.4986C118.512 26.6122 118.264 26.7842 118.061 27.0028C117.858 27.2214 117.704 27.4813 117.611 27.7648C117.518 28.0483 117.487 28.3486 117.521 28.6451V34.5765H115.468L115.468 24.5766Z" fill="white"/>
<path d="M130.046 31.6394C129.77 33.4547 128.002 34.7005 125.74 34.7005C122.831 34.7005 121.025 32.7514 121.025 29.6245C121.025 26.4879 122.841 24.4536 125.654 24.4536C128.42 24.4536 130.16 26.3541 130.16 29.3861V30.0894H123.097V30.2134C123.065 30.5815 123.111 30.9522 123.233 31.3011C123.354 31.6499 123.549 31.9689 123.803 32.2368C124.058 32.5047 124.366 32.7154 124.708 32.8549C125.05 32.9944 125.418 33.0595 125.788 33.0459C126.273 33.0913 126.759 32.979 127.175 32.7256C127.591 32.4722 127.915 32.0912 128.097 31.6394L130.046 31.6394ZM123.107 28.6548H128.107C128.125 28.3239 128.075 27.9928 127.959 27.6822C127.844 27.3716 127.665 27.0882 127.435 26.8499C127.204 26.6116 126.927 26.4235 126.621 26.2973C126.314 26.1712 125.985 26.1097 125.654 26.1168C125.319 26.1149 124.988 26.1791 124.679 26.3058C124.37 26.4325 124.088 26.6193 123.852 26.8552C123.615 27.0912 123.427 27.3717 123.299 27.6806C123.172 27.9895 123.106 28.3206 123.107 28.6548V28.6548Z" fill="white"/>
<path d="M51.0094 10.5363C51.4397 10.5054 51.8716 10.5704 52.2737 10.7266C52.6759 10.8828 53.0384 11.1264 53.335 11.4396C53.6317 11.7529 53.8551 12.1281 53.9892 12.5382C54.1233 12.9482 54.1647 13.383 54.1105 13.811C54.1105 15.9164 52.9725 17.1267 51.0094 17.1267H48.6289V10.5363H51.0094ZM49.6525 16.1947H50.8951C51.2026 16.2131 51.5103 16.1626 51.7959 16.0471C52.0814 15.9315 52.3376 15.7538 52.5458 15.5267C52.754 15.2997 52.909 15.0291 52.9994 14.7346C53.0898 14.4401 53.1134 14.1292 53.0685 13.8244C53.1101 13.5209 53.0841 13.2118 52.9923 12.9195C52.9005 12.6272 52.7452 12.3588 52.5375 12.1336C52.3298 11.9083 52.0748 11.7318 51.7908 11.6167C51.5069 11.5015 51.201 11.4506 50.8951 11.4676H49.6525V16.1947Z" fill="white"/>
<path d="M55.2667 14.6377C55.2354 14.3108 55.2728 13.9811 55.3765 13.6695C55.4801 13.358 55.6477 13.0715 55.8686 12.8285C56.0894 12.5856 56.3586 12.3914 56.6589 12.2586C56.9591 12.1258 57.2838 12.0571 57.6122 12.0571C57.9405 12.0571 58.2652 12.1258 58.5655 12.2586C58.8657 12.3914 59.1349 12.5856 59.3558 12.8285C59.5766 13.0715 59.7442 13.358 59.8479 13.6695C59.9515 13.9811 59.9889 14.3108 59.9576 14.6377C59.9895 14.9649 59.9525 15.2951 59.8492 15.6071C59.7458 15.9192 59.5783 16.2062 59.3574 16.4496C59.1365 16.6931 58.8671 16.8876 58.5666 17.0207C58.266 17.1539 57.9409 17.2226 57.6122 17.2226C57.2834 17.2226 56.9584 17.1539 56.6578 17.0207C56.3572 16.8876 56.0878 16.6931 55.8669 16.4496C55.6461 16.2062 55.4785 15.9192 55.3752 15.6071C55.2718 15.2951 55.2348 14.9649 55.2667 14.6377ZM58.948 14.6377C58.948 13.5596 58.4637 12.9291 57.6138 12.9291C56.7606 12.9291 56.2806 13.5596 56.2806 14.6377C56.2806 15.7244 56.7606 16.35 57.6138 16.35C58.4638 16.35 58.948 15.7201 58.948 14.6377H58.948Z" fill="white"/>
<path d="M66.1931 17.1268H65.1749L64.147 13.4638H64.0693L63.0457 17.1268H62.0372L60.6663 12.1533H61.6618L62.5528 15.9484H62.6261L63.6487 12.1533H64.5903L65.6128 15.9484H65.6905L66.5771 12.1533H67.5586L66.1931 17.1268Z" fill="white"/>
<path d="M68.7117 12.1531H69.6565V12.9432H69.7299C69.8543 12.6595 70.0642 12.4216 70.3302 12.2627C70.5963 12.1039 70.9052 12.032 71.2141 12.0571C71.4561 12.0389 71.6991 12.0754 71.925 12.1639C72.151 12.2524 72.3542 12.3905 72.5195 12.5682C72.6849 12.7459 72.8081 12.9584 72.8801 13.1902C72.9521 13.4219 72.9711 13.6669 72.9355 13.907V17.1266H71.954V14.1535C71.954 13.3542 71.6067 12.9567 70.8808 12.9567C70.7165 12.9491 70.5525 12.977 70.4 13.0387C70.2475 13.1004 70.1101 13.1943 69.9973 13.314C69.8845 13.4337 69.799 13.5764 69.7465 13.7323C69.694 13.8881 69.6758 14.0535 69.6932 14.2171V17.1267H68.7117L68.7117 12.1531Z" fill="white"/>
<path d="M74.4998 10.2119H75.4813V17.1269H74.4998V10.2119Z" fill="white"/>
<path d="M76.8455 14.6378C76.8143 14.3109 76.8517 13.9811 76.9554 13.6696C77.0591 13.358 77.2267 13.0715 77.4476 12.8286C77.6684 12.5856 77.9376 12.3914 78.2379 12.2586C78.5382 12.1258 78.8629 12.0571 79.1913 12.0571C79.5196 12.0571 79.8444 12.1258 80.1446 12.2586C80.4449 12.3914 80.7141 12.5856 80.935 12.8286C81.1558 13.0715 81.3235 13.358 81.4272 13.6696C81.5308 13.9811 81.5682 14.3109 81.537 14.6378C81.5688 14.965 81.5318 15.2952 81.4284 15.6072C81.325 15.9193 81.1575 16.2063 80.9366 16.4497C80.7157 16.6931 80.4463 16.8877 80.1457 17.0208C79.8451 17.1539 79.52 17.2227 79.1913 17.2227C78.8625 17.2227 78.5374 17.1539 78.2369 17.0208C77.9363 16.8877 77.6669 16.6931 77.446 16.4497C77.2251 16.2063 77.0575 15.9193 76.9541 15.6072C76.8507 15.2952 76.8137 14.965 76.8455 14.6378ZM80.5269 14.6378C80.5269 13.5597 80.0426 12.9292 79.1926 12.9292C78.3394 12.9292 77.8595 13.5597 77.8595 14.6378C77.8595 15.7245 78.3395 16.3501 79.1926 16.3501C80.0426 16.3501 80.5269 15.7202 80.5269 14.6378H80.5269Z" fill="white"/>
<path d="M82.5703 15.7201C82.5703 14.8249 83.2369 14.3087 84.4201 14.2354L85.7673 14.1577V13.7284C85.7673 13.2032 85.42 12.9065 84.7491 12.9065C84.2012 12.9065 83.8215 13.1077 83.7126 13.4593H82.7623C82.8626 12.6051 83.6662 12.0571 84.7944 12.0571C86.0413 12.0571 86.7446 12.6779 86.7446 13.7284V17.1266H85.7997V16.4277H85.722C85.5644 16.6784 85.3431 16.8828 85.0806 17.02C84.8182 17.1572 84.524 17.2223 84.2282 17.2086C84.0194 17.2303 83.8083 17.208 83.6087 17.1432C83.409 17.0784 83.2252 16.9724 83.069 16.8322C82.9128 16.6919 82.7877 16.5205 82.7018 16.329C82.6159 16.1374 82.5711 15.93 82.5703 15.7201ZM85.7673 15.2951V14.8793L84.5528 14.957C83.8679 15.0028 83.5572 15.2358 83.5572 15.6743C83.5572 16.1219 83.9455 16.3824 84.4795 16.3824C84.636 16.3982 84.794 16.3824 84.9442 16.3359C85.0944 16.2894 85.2338 16.2132 85.3539 16.1118C85.4741 16.0103 85.5726 15.8858 85.6436 15.7455C85.7146 15.6052 85.7567 15.452 85.7673 15.2951Z" fill="white"/>
<path d="M88.0347 14.6381C88.0347 13.0665 88.8426 12.0709 90.0991 12.0709C90.41 12.0566 90.7185 12.1311 90.9885 12.2856C91.2586 12.4401 91.4791 12.6683 91.6243 12.9435H91.6977V10.2119H92.6792V17.1269H91.7387V16.3412H91.661C91.5046 16.6145 91.2764 16.8399 91.0011 16.9928C90.7258 17.1458 90.4139 17.2205 90.0992 17.2089C88.8339 17.209 88.0347 16.2134 88.0347 14.6381ZM89.0486 14.6381C89.0486 15.6929 89.5459 16.3277 90.3775 16.3277C91.2048 16.3277 91.716 15.6838 91.716 14.6424C91.716 13.6058 91.1994 12.9527 90.3775 12.9527C89.5512 12.9527 89.0486 13.5918 89.0486 14.6381H89.0486Z" fill="white"/>
<path d="M96.7403 14.6377C96.7091 14.3108 96.7465 13.9811 96.8501 13.6695C96.9538 13.358 97.1214 13.0715 97.3422 12.8285C97.5631 12.5856 97.8322 12.3914 98.1325 12.2586C98.4328 12.1258 98.7575 12.0571 99.0858 12.0571C99.4141 12.0571 99.7389 12.1258 100.039 12.2586C100.339 12.3914 100.609 12.5856 100.829 12.8285C101.05 13.0715 101.218 13.358 101.321 13.6695C101.425 13.9811 101.463 14.3108 101.431 14.6377C101.463 14.9649 101.426 15.2951 101.323 15.6071C101.219 15.9192 101.052 16.2062 100.831 16.4496C100.61 16.6931 100.341 16.8876 100.04 17.0207C99.7396 17.1539 99.4145 17.2226 99.0858 17.2226C98.7571 17.2226 98.432 17.1539 98.1314 17.0207C97.8309 16.8876 97.5615 16.6931 97.3406 16.4496C97.1197 16.2062 96.9522 15.9192 96.8488 15.6071C96.7454 15.2951 96.7085 14.9649 96.7403 14.6377ZM100.422 14.6377C100.422 13.5596 99.9374 12.9291 99.0874 12.9291C98.2342 12.9291 97.7543 13.5596 97.7543 14.6377C97.7543 15.7244 98.2343 16.35 99.0874 16.35C99.9374 16.35 100.422 15.7201 100.422 14.6377Z" fill="white"/>
<path d="M102.748 12.1531H103.693V12.9432H103.767C103.891 12.6595 104.101 12.4216 104.367 12.2627C104.633 12.1039 104.942 12.032 105.251 12.0571C105.493 12.0389 105.736 12.0754 105.962 12.1639C106.188 12.2524 106.391 12.3905 106.556 12.5682C106.721 12.7459 106.845 12.9584 106.917 13.1902C106.989 13.4219 107.008 13.6669 106.972 13.907V17.1266H105.991V14.1535C105.991 13.3542 105.643 12.9567 104.917 12.9567C104.753 12.9491 104.589 12.977 104.437 13.0387C104.284 13.1004 104.147 13.1943 104.034 13.314C103.921 13.4337 103.836 13.5764 103.783 13.7323C103.731 13.8881 103.712 14.0535 103.73 14.2171V17.1267H102.748V12.1531Z" fill="white"/>
<path d="M112.518 10.915V12.1759H113.596V13.0027H112.518V15.5601C112.518 16.0811 112.733 16.3092 113.222 16.3092C113.347 16.3088 113.472 16.3013 113.596 16.2866V17.1042C113.42 17.1357 113.241 17.1525 113.062 17.1543C111.97 17.1543 111.536 16.7703 111.536 15.8114V13.0027H110.746V12.1759H111.536V10.915H112.518Z" fill="white"/>
<path d="M114.937 10.2119H115.909V12.9527H115.987C116.118 12.6663 116.333 12.427 116.605 12.2676C116.876 12.1082 117.19 12.0363 117.504 12.0618C117.744 12.0487 117.985 12.0888 118.208 12.1795C118.432 12.2701 118.632 12.4089 118.796 12.586C118.96 12.7631 119.082 12.9741 119.155 13.204C119.228 13.4339 119.249 13.677 119.216 13.9159V17.127H118.234V14.158C118.234 13.3636 117.864 12.9613 117.17 12.9613C117.002 12.9475 116.832 12.9707 116.673 13.0293C116.514 13.0879 116.37 13.1805 116.251 13.3006C116.132 13.4207 116.04 13.5654 115.983 13.7246C115.925 13.8838 115.903 14.0536 115.918 14.2222V17.1269H114.937L114.937 10.2119Z" fill="white"/>
<path d="M124.94 15.7838C124.806 16.2384 124.518 16.6316 124.124 16.8946C123.73 17.1577 123.256 17.2738 122.785 17.2227C122.457 17.2314 122.131 17.1686 121.83 17.0388C121.529 16.909 121.26 16.7152 121.042 16.471C120.823 16.2267 120.66 15.9378 120.565 15.6244C120.469 15.3109 120.442 14.9803 120.487 14.6556C120.444 14.3299 120.47 13.9986 120.566 13.6842C120.662 13.3698 120.824 13.0796 121.041 12.8332C121.258 12.5868 121.526 12.39 121.826 12.2561C122.126 12.1222 122.452 12.0544 122.78 12.0572C124.164 12.0572 124.999 13.0027 124.999 14.5644V14.9069H121.487V14.9619C121.472 15.1445 121.495 15.3282 121.555 15.5013C121.614 15.6744 121.71 15.8332 121.834 15.9673C121.959 16.1015 122.11 16.2081 122.279 16.2803C122.447 16.3525 122.629 16.3888 122.812 16.3868C123.046 16.4149 123.284 16.3727 123.495 16.2653C123.706 16.1579 123.88 15.9903 123.995 15.7838L124.94 15.7838ZM121.487 14.181H123.999C124.012 14.0141 123.989 13.8464 123.933 13.6888C123.876 13.5312 123.788 13.387 123.672 13.2657C123.557 13.1444 123.418 13.0485 123.263 12.9842C123.109 12.92 122.942 12.8888 122.775 12.8926C122.605 12.8905 122.437 12.9223 122.28 12.9863C122.122 13.0503 121.979 13.1452 121.859 13.2653C121.739 13.3853 121.645 13.5282 121.581 13.6855C121.517 13.8428 121.485 14.0113 121.487 14.181H121.487Z" fill="white"/>
</g>
<defs>
<clipPath id="clip0_648_3101">
<rect width="149.109" height="44.1803" fill="white" transform="translate(0.362549 0.893066)"/>
</clipPath>
</defs>
</svg>
