<svg width="25" height="24" viewBox="0 0 25 24" fill="none" xmlns="http://www.w3.org/2000/svg">
<path d="M12.8148 13.3057L18.1222 7.99833C18.2188 7.89226 18.3357 7.80665 18.4659 7.74656C18.5962 7.68647 18.7372 7.65313 18.8806 7.64851C19.024 7.64388 19.1668 7.66808 19.3007 7.71965C19.4346 7.77123 19.5567 7.84914 19.66 7.94877C19.7632 8.0484 19.8454 8.16772 19.9017 8.29968C19.9579 8.43164 19.9872 8.57355 19.9876 8.71701C19.9881 8.86047 19.9598 9.00257 19.9043 9.13489C19.8489 9.2672 19.7675 9.38706 19.6649 9.48734L19.6388 9.51347L13.5739 15.5798C13.3727 15.7809 13.1 15.8939 12.8156 15.8939C12.5312 15.8939 12.2584 15.7809 12.0573 15.5798L5.99236 9.51492C5.89106 9.41705 5.81003 9.30019 5.7539 9.17101C5.69776 9.04183 5.66762 8.90286 5.6652 8.76203C5.66277 8.62121 5.68811 8.48128 5.73976 8.35024C5.79141 8.21921 5.86837 8.09962 5.96623 7.99833C6.0641 7.89703 6.18096 7.816 6.31014 7.75987C6.43932 7.70374 6.57829 7.6736 6.71912 7.67117C6.85995 7.66875 6.99987 7.69408 7.13091 7.74573C7.26195 7.79739 7.38153 7.87434 7.48282 7.97221L7.50895 7.99833L12.8148 13.3057Z" fill="#7DD13A" stroke="#7DD13A" stroke-width="0.725641"/>
</svg>
