<svg width="25" height="24" viewBox="0 0 25 24" fill="none" xmlns="http://www.w3.org/2000/svg">
<path d="M14.3604 12.4693L9.05302 7.16201C8.94695 7.06542 8.86133 6.94852 8.80124 6.81825C8.74116 6.68798 8.70781 6.54698 8.70319 6.40359C8.69857 6.2602 8.72276 6.11735 8.77434 5.98348C8.82591 5.84961 8.90382 5.72744 9.00345 5.62422C9.10308 5.521 9.22241 5.43881 9.35437 5.38253C9.48633 5.32625 9.62824 5.29701 9.7717 5.29655C9.91516 5.29609 10.0573 5.32442 10.1896 5.37985C10.3219 5.43529 10.4417 5.51671 10.542 5.6193L10.5682 5.64542L16.6345 11.7103C16.8356 11.9115 16.9486 12.1842 16.9486 12.4686C16.9486 12.753 16.8356 13.0258 16.6345 13.2269L10.5696 19.2918C10.4717 19.3931 10.3549 19.4741 10.2257 19.5303C10.0965 19.5864 9.95755 19.6166 9.81672 19.619C9.67589 19.6214 9.53597 19.5961 9.40493 19.5444C9.27389 19.4928 9.15431 19.4158 9.05302 19.3179C8.95172 19.2201 8.87069 19.1032 8.81456 18.974C8.75842 18.8449 8.72828 18.7059 8.72586 18.5651C8.72343 18.4242 8.74877 18.2843 8.80042 18.1533C8.85207 18.0222 8.92903 17.9027 9.02689 17.8014L9.05302 17.7752L14.3604 12.4693Z" fill="#7DD13A" stroke="#7DD13A" stroke-width="0.725641"/>
</svg>
