<svg width="150" height="45" viewBox="0 0 150 45" fill="none" xmlns="http://www.w3.org/2000/svg">
<g clip-path="url(#clip0_648_3100)">
<path d="M143.586 0.893066H5.52254C2.47252 0.893066 0 3.36559 0 6.4156V39.5508C0 42.6008 2.47252 45.0734 5.52254 45.0734H143.586C146.636 45.0734 149.109 42.6008 149.109 39.5508V6.4156C149.109 3.36559 146.636 0.893066 143.586 0.893066Z" fill="black"/>
<path d="M143.586 1.77645C144.816 1.77787 145.995 2.26711 146.865 3.13682C147.734 4.00653 148.223 5.18569 148.225 6.4156V39.5508C148.223 40.7807 147.734 41.9599 146.865 42.8296C145.995 43.6993 144.816 44.1885 143.586 44.19H5.52254C4.29261 44.1886 3.11347 43.6993 2.24381 42.8296C1.37414 41.9599 0.884965 40.7808 0.883606 39.5508V6.4156C0.884945 5.18567 1.37411 4.0065 2.24378 3.13678C3.11346 2.26707 4.29261 1.77785 5.52254 1.77645H143.586ZM143.586 0.893066H5.52254C4.05919 0.89735 2.657 1.48056 1.62225 2.51531C0.587496 3.55006 0.00428339 4.95225 0 6.4156L0 39.5508C0.00428339 41.0142 0.587496 42.4164 1.62225 43.4511C2.657 44.4859 4.05919 45.0691 5.52254 45.0734H143.586C145.049 45.0691 146.452 44.4859 147.486 43.4511C148.521 42.4164 149.104 41.0142 149.109 39.5508V6.4156C149.104 4.95225 148.521 3.55006 147.486 2.51531C146.452 1.48056 145.049 0.89735 143.586 0.893066Z" fill="#A6A6A6"/>
<path d="M52.3741 12.2067C52.3941 12.612 52.3315 13.0171 52.19 13.3974C52.0485 13.7777 51.8311 14.1253 51.551 14.4189C51.2371 14.7445 50.858 15.0001 50.4384 15.169C50.0189 15.338 49.5685 15.4165 49.1165 15.3994C48.6617 15.4034 48.2107 15.3166 47.7899 15.1438C47.3692 14.9711 46.9872 14.716 46.6664 14.3935C46.3457 14.071 46.0926 13.6877 45.9221 13.266C45.7517 12.8443 45.6672 12.3928 45.6737 11.9381C45.6672 11.4833 45.7517 11.0318 45.9222 10.6101C46.0927 10.1884 46.3458 9.80504 46.6665 9.48254C46.9873 9.16003 47.3692 8.90487 47.79 8.73206C48.2107 8.55924 48.6617 8.47225 49.1165 8.4762C49.5842 8.47479 50.0471 8.56933 50.4767 8.75399C50.8758 8.91573 51.2309 9.16944 51.5133 9.49445L50.9308 10.0774C50.7088 9.81614 50.4298 9.60936 50.1152 9.47303C49.8007 9.33669 49.459 9.27445 49.1165 9.29111C48.7719 9.28933 48.4303 9.35713 48.1125 9.49045C47.7946 9.62378 47.5069 9.81989 47.2666 10.067C47.0263 10.3142 46.8384 10.6073 46.7141 10.9288C46.5897 11.2503 46.5316 11.5936 46.543 11.9381C46.5348 12.4541 46.68 12.9609 46.9602 13.3943C47.2405 13.8277 47.6431 14.1681 48.117 14.3724C48.5909 14.5767 49.1149 14.6356 49.6223 14.5417C50.1298 14.4479 50.598 14.2054 50.9675 13.8451C51.3075 13.4787 51.5047 13.0023 51.5229 12.5027H49.1165V11.7067H52.3277C52.358 11.8716 52.3736 12.039 52.3741 12.2067Z" fill="white" stroke="white" stroke-width="0.220902" stroke-miterlimit="10"/>
<path d="M57.4649 9.43887H54.447V11.54H57.1684V12.3361H54.447V14.4372H57.4649V15.2516H53.5959V8.62451H57.4649V9.43887Z" fill="white" stroke="white" stroke-width="0.220902" stroke-miterlimit="10"/>
<path d="M61.0558 15.2516H60.2037V9.43887H58.3528V8.62451H62.9068V9.43887H61.0558V15.2516Z" fill="white" stroke="white" stroke-width="0.220902" stroke-miterlimit="10"/>
<path d="M66.2019 15.2516V8.62451H67.0529V15.2516H66.2019Z" fill="white" stroke="white" stroke-width="0.220902" stroke-miterlimit="10"/>
<path d="M70.8302 15.2516H69.978V9.43887H68.1272V8.62451H72.6811V9.43887H70.8302V15.2516Z" fill="white" stroke="white" stroke-width="0.220902" stroke-miterlimit="10"/>
<path d="M81.302 14.395C80.657 15.0381 79.7833 15.3992 78.8724 15.3992C77.9616 15.3992 77.0879 15.0381 76.4429 14.395C76.1237 14.0718 75.8729 13.6877 75.7052 13.2656C75.5375 12.8435 75.4564 12.392 75.4667 11.9379C75.4564 11.4839 75.5375 11.0323 75.7052 10.6102C75.8729 10.1881 76.1237 9.80405 76.4429 9.48084C76.7617 9.16194 77.1403 8.90904 77.5569 8.73663C77.9736 8.56422 78.4202 8.47568 78.8712 8.47608C79.3221 8.47648 79.7686 8.56581 80.1849 8.73896C80.6013 8.91211 80.9795 9.16568 81.2977 9.48515C81.6171 9.80751 81.8684 10.1907 82.0368 10.6121C82.2052 11.0334 82.2873 11.4843 82.2782 11.9379C82.2882 12.392 82.207 12.8434 82.0393 13.2655C81.8716 13.6875 81.6209 14.0716 81.302 14.395ZM77.0716 13.8401C77.5494 14.317 78.1968 14.5849 78.8719 14.5849C79.5469 14.5849 80.1944 14.317 80.6721 13.8401C80.9171 13.5893 81.1087 13.2914 81.2353 12.9645C81.3619 12.6375 81.421 12.2883 81.4088 11.9379C81.421 11.5875 81.3619 11.2383 81.2353 10.9114C81.1087 10.5844 80.9171 10.2866 80.6721 10.0357C80.1944 9.55883 79.5469 9.29097 78.8719 9.29097C78.1968 9.29097 77.5494 9.55883 77.0716 10.0357C76.827 10.2868 76.6357 10.5847 76.5093 10.9116C76.3829 11.2385 76.3239 11.5876 76.336 11.9379C76.3239 12.2882 76.3829 12.6373 76.5093 12.9643C76.6357 13.2912 76.827 13.5891 77.0716 13.8401Z" fill="white" stroke="white" stroke-width="0.220902" stroke-miterlimit="10"/>
<path d="M83.4731 15.2516V8.62451H84.5097L87.7305 13.7798H87.7671L87.7305 12.5027V8.62451H88.5826V15.2516H87.6938L84.3242 9.84654H84.2875L84.3242 11.1237V15.2516H83.4731Z" fill="white" stroke="white" stroke-width="0.220902" stroke-miterlimit="10"/>
<path d="M75.2565 24.918C74.3282 24.9215 73.4217 25.2 72.6515 25.7183C71.8813 26.2367 71.282 26.9716 70.9291 27.8303C70.5763 28.689 70.4858 29.6329 70.6691 30.543C70.8524 31.4531 71.3012 32.2885 71.9589 32.9437C72.6166 33.5989 73.4536 34.0445 74.3644 34.2243C75.2752 34.4041 76.2188 34.3101 77.0762 33.954C77.9335 33.5979 78.6661 32.9958 79.1815 32.2236C79.6969 31.4515 79.972 30.5439 79.972 29.6156C79.9811 28.9946 79.8652 28.3782 79.6313 27.803C79.3973 27.2277 79.05 26.7054 78.6101 26.2672C78.1701 25.8289 77.6465 25.4836 77.0704 25.2518C76.4943 25.02 75.8774 24.9065 75.2565 24.918ZM75.2565 32.4627C74.6848 32.5034 74.114 32.3711 73.6186 32.083C73.1231 31.7948 72.7258 31.3642 72.4786 30.8471C72.2313 30.33 72.1454 29.7504 72.2321 29.1839C72.3188 28.6173 72.5741 28.0899 72.9647 27.6705C73.3553 27.251 73.8631 26.9589 74.4221 26.8321C74.9811 26.7053 75.5653 26.7497 76.0986 26.9596C76.632 27.1695 77.0898 27.5351 77.4125 28.0088C77.7352 28.4825 77.9077 29.0424 77.9078 29.6156C77.9251 29.9777 77.8698 30.3396 77.7452 30.68C77.6206 31.0204 77.4291 31.3325 77.182 31.5978C76.935 31.8631 76.6374 32.0763 76.3067 32.2248C75.976 32.3733 75.6189 32.4542 75.2565 32.4627ZM64.9698 24.918C64.0414 24.9215 63.1349 25.2 62.3647 25.7183C61.5945 26.2366 60.9952 26.9715 60.6423 27.8302C60.2895 28.6889 60.199 29.6329 60.3822 30.543C60.5655 31.453 61.0143 32.2884 61.672 32.9436C62.3297 33.5989 63.1668 34.0445 64.0775 34.2243C64.9883 34.4041 65.932 34.3101 66.7893 33.954C67.6467 33.5979 68.3793 32.9958 68.8947 32.2236C69.4101 31.4515 69.6852 30.5439 69.6851 29.6156C69.6943 28.9946 69.5784 28.3782 69.3444 27.803C69.1105 27.2278 68.7632 26.7055 68.3233 26.2672C67.8833 25.8289 67.3597 25.4836 66.7836 25.2518C66.2075 25.02 65.5907 24.9065 64.9698 24.918ZM64.9698 32.4627C64.3981 32.5034 63.8273 32.3711 63.3318 32.083C62.8364 31.7948 62.4391 31.3642 62.1918 30.8471C61.9446 30.33 61.8587 29.7504 61.9454 29.1839C62.0321 28.6173 62.2873 28.0899 62.678 27.6705C63.0686 27.251 63.5764 26.9589 64.1354 26.8321C64.6944 26.7053 65.2786 26.7497 65.8119 26.9596C66.3453 27.1695 66.8031 27.5351 67.1258 28.0088C67.4485 28.4825 67.621 29.0424 67.621 29.6156C67.6384 29.9777 67.5831 30.3396 67.4585 30.68C67.3339 31.0204 67.1424 31.3325 66.8953 31.5978C66.6483 31.8631 66.3507 32.0763 66.02 32.2248C65.6893 32.3733 65.3322 32.4542 64.9698 32.4627ZM52.7332 26.3594V28.3522H57.5021C57.4333 29.287 57.0508 30.1711 56.4166 30.8612C55.9387 31.3484 55.364 31.7299 54.7295 31.9812C54.0951 32.2325 53.415 32.348 52.7332 32.3203C51.3392 32.3014 50.0088 31.7344 49.0298 30.7421C48.0507 29.7497 47.5018 28.4117 47.5018 27.0177C47.5018 25.6236 48.0507 24.2856 49.0298 23.2933C50.0088 22.3009 51.3392 21.7339 52.7332 21.715C54.0721 21.6975 55.3638 22.2091 56.3277 23.1385L57.7334 21.7328C57.0757 21.0817 56.2947 20.5685 55.436 20.2232C54.5774 19.8779 53.6585 19.7075 52.7332 19.722C51.7661 19.708 50.806 19.8863 49.9085 20.2466C49.011 20.6069 48.1941 21.1421 47.5053 21.8209C46.8165 22.4998 46.2695 23.3088 45.8962 24.2009C45.5228 25.0931 45.3306 26.0505 45.3306 27.0177C45.3306 27.9848 45.5228 28.9422 45.8962 29.8344C46.2695 30.7265 46.8165 31.5355 47.5053 32.2144C48.1941 32.8932 49.011 33.4284 49.9085 33.7887C50.806 34.149 51.7661 34.3273 52.7332 34.3133C53.678 34.3524 54.6204 34.1903 55.4978 33.8375C56.3752 33.4847 57.1676 32.9493 57.8223 32.2669C58.9847 30.9981 59.6043 29.3248 59.5484 27.6049C59.553 27.1873 59.5172 26.7701 59.4415 26.3594H52.7332ZM102.777 27.9073C102.494 27.0565 101.957 26.3131 101.237 25.7783C100.518 25.2435 99.6511 24.9431 98.755 24.918C98.1514 24.9217 97.5549 25.0478 97.0014 25.2887C96.448 25.5295 95.9491 25.88 95.535 26.3191C95.1208 26.7582 94.8 27.2767 94.5919 27.8433C94.3839 28.4099 94.2929 29.0128 94.3244 29.6156C94.3108 30.2332 94.4218 30.8472 94.6508 31.421C94.8798 31.9947 95.2222 32.5164 95.6573 32.9549C96.0925 33.3934 96.6116 33.7397 97.1836 33.9731C97.7555 34.2064 98.3687 34.3221 98.9864 34.3133C99.7603 34.3175 100.523 34.1296 101.206 33.7662C101.89 33.4028 102.472 32.8754 102.901 32.2314L101.3 31.1638C101.06 31.5622 100.72 31.8914 100.315 32.1191C99.9092 32.3468 99.4515 32.4652 98.9864 32.4627C98.5078 32.481 98.0348 32.355 97.6286 32.1012C97.2225 31.8474 96.902 31.4774 96.7087 31.0392L102.99 28.4413L102.777 27.9073ZM96.3707 29.4733C96.3486 29.1314 96.3949 28.7885 96.5069 28.4647C96.6189 28.1409 96.7943 27.8427 97.023 27.5875C97.2516 27.3324 97.5289 27.1254 97.8385 26.9786C98.1481 26.8319 98.4839 26.7484 98.8261 26.733C99.1826 26.7096 99.538 26.7916 99.8481 26.9688C100.158 27.146 100.409 27.4105 100.57 27.7295L96.3707 29.4733ZM91.2637 34.0285H93.3278V20.2204H91.2637V34.0285ZM87.8828 25.9678H87.8117C87.4978 25.6269 87.1149 25.3568 86.6883 25.1758C86.2618 24.9948 85.8015 24.9069 85.3382 24.918C84.1269 24.9695 82.9823 25.487 82.1435 26.3623C81.3046 27.2377 80.8363 28.4032 80.8363 29.6156C80.8363 30.828 81.3046 31.9936 82.1435 32.8689C82.9823 33.7442 84.1269 34.2617 85.3382 34.3133C85.8033 34.3256 86.2655 34.2365 86.6927 34.0522C87.1198 33.8678 87.5017 33.5926 87.8117 33.2456H87.8828V33.9218C87.8828 35.7191 86.922 36.6799 85.3738 36.6799C84.8578 36.6675 84.3572 36.5019 83.9358 36.204C83.5143 35.9061 83.1911 35.4895 83.0073 35.0072L81.21 35.7546C81.5488 36.5793 82.126 37.2841 82.8678 37.7787C83.6097 38.2732 84.4822 38.535 85.3738 38.5305C87.7939 38.5305 89.8402 37.107 89.8402 33.6371V25.2026H87.8828V25.9678ZM85.5163 32.4627C84.8028 32.4022 84.1381 32.076 83.6537 31.5488C83.1692 31.0215 82.9004 30.3316 82.9004 29.6156C82.9004 28.8996 83.1692 28.2097 83.6537 27.6825C84.1381 27.1552 84.8028 26.8291 85.5163 26.7686C85.8712 26.7859 86.219 26.8745 86.539 27.0292C86.859 27.1838 87.1445 27.4012 87.3786 27.6686C87.6128 27.9359 87.7907 28.2476 87.9017 28.5852C88.0128 28.9228 88.0548 29.2792 88.0252 29.6333C88.0529 29.9853 88.0094 30.3392 87.8972 30.6739C87.785 31.0086 87.6065 31.3173 87.3723 31.5814C87.1381 31.8456 86.853 32.0597 86.5341 32.2112C86.2152 32.3626 85.869 32.4481 85.5163 32.4627ZM112.445 20.2206H107.507V34.0285H109.567V28.7971H112.445C113.028 28.8291 113.611 28.7419 114.16 28.5408C114.708 28.3397 115.209 28.029 115.633 27.6277C116.057 27.2263 116.395 26.7428 116.625 26.2066C116.856 25.6703 116.975 25.0927 116.975 24.5089C116.975 23.9251 116.856 23.3474 116.625 22.8112C116.395 22.275 116.057 21.7914 115.633 21.3901C115.209 20.9887 114.708 20.678 114.16 20.477C113.611 20.2759 113.028 20.1887 112.445 20.2206ZM112.499 26.8755H109.567V22.1424H112.499C112.813 22.1358 113.126 22.1922 113.419 22.3082C113.712 22.4242 113.979 22.5975 114.204 22.8179C114.429 23.0383 114.608 23.3014 114.73 23.5918C114.852 23.8821 114.915 24.194 114.915 24.5089C114.915 24.8239 114.852 25.1357 114.73 25.4261C114.608 25.7165 114.429 25.9796 114.204 26.2C113.979 26.4204 113.712 26.5936 113.419 26.7096C113.126 26.8256 112.813 26.882 112.499 26.8755ZM125.235 24.8926C124.483 24.8487 123.735 25.0253 123.081 25.4008C122.428 25.7763 121.899 26.3344 121.558 27.0065L123.388 27.7704C123.569 27.4368 123.844 27.1633 124.178 26.9835C124.513 26.8036 124.892 26.7252 125.271 26.7578C125.794 26.7067 126.315 26.865 126.722 27.198C127.128 27.531 127.385 28.0115 127.438 28.5341V28.6763C126.776 28.3247 126.038 28.1416 125.289 28.1434C123.317 28.1434 121.31 29.227 121.31 31.2521C121.329 31.6789 121.433 32.0975 121.617 32.4831C121.801 32.8686 122.061 33.2133 122.381 33.4966C122.701 33.7799 123.074 33.9961 123.479 34.1323C123.884 34.2686 124.312 34.3221 124.738 34.2897C125.257 34.3203 125.774 34.2111 126.237 33.9737C126.699 33.7363 127.09 33.3792 127.367 32.9397H127.438V34.0055H129.428V28.7119C129.428 26.2604 127.598 24.8926 125.235 24.8926ZM124.987 32.46C124.312 32.46 123.37 32.1226 123.37 31.2876C123.37 30.2218 124.543 29.8132 125.555 29.8132C126.213 29.7956 126.863 29.9552 127.438 30.2751C127.362 30.874 127.072 31.4252 126.622 31.8269C126.171 32.2285 125.59 32.4534 124.987 32.46ZM136.675 25.1946L134.313 31.181H134.242L131.79 25.1946H129.57L133.247 33.5614L131.151 38.2156H133.3L138.967 25.1946H136.675ZM118.112 34.0285H120.173V20.2206H118.112V34.0285Z" fill="white"/>
<path d="M11.5259 9.21886C11.1637 9.65191 10.9809 10.2071 11.0148 10.7706V35.198C10.9808 35.7615 11.1637 36.3167 11.5259 36.7497L11.6077 36.8293L25.2914 23.1457V22.8229L11.6077 9.13867L11.5259 9.21886Z" fill="url(#paint0_linear_648_3100)"/>
<path d="M29.8522 27.7093L25.2913 23.1461V22.8233L29.8533 18.2612L29.9561 18.3199L35.3603 21.3905C36.9039 22.2675 36.9039 23.7025 35.3603 24.58L29.9561 27.6507L29.8522 27.7093Z" fill="url(#paint1_linear_648_3100)"/>
<path d="M29.9562 27.6497L25.2914 22.9844L11.5259 36.7497C11.8404 37.0271 12.2421 37.1858 12.6613 37.1982C13.0805 37.2106 13.4908 37.0759 13.8212 36.8176L29.9562 27.6497Z" fill="url(#paint2_linear_648_3100)"/>
<path d="M29.9562 18.3188L13.8212 9.15093C13.4908 8.89258 13.0805 8.75793 12.6613 8.77032C12.2421 8.7827 11.8404 8.94134 11.5259 9.21874L25.2914 22.9842L29.9562 18.3188Z" fill="url(#paint3_linear_648_3100)"/>
<path opacity="0.2" d="M29.8534 27.5474L13.8212 36.6566C13.5035 36.8984 13.1158 37.0303 12.7166 37.0324C12.3174 37.0346 11.9284 36.9068 11.6082 36.6684L11.5259 36.7507L11.6076 36.8303L11.6082 36.8298C11.9283 37.0683 12.3174 37.1961 12.7166 37.194C13.1159 37.1919 13.5036 37.0599 13.8212 36.8179L29.9562 27.6501L29.8534 27.5474Z" fill="black"/>
<path opacity="0.12" d="M11.5259 36.5888C11.1637 36.1558 10.9809 35.6006 11.0147 35.0371V35.1985C10.9809 35.762 11.1637 36.3171 11.5259 36.7502L11.6082 36.6679L11.5259 36.5888Z" fill="black"/>
<path opacity="0.12" d="M35.3602 24.4177L29.8533 27.547L29.9561 27.6498L35.3602 24.5791C35.6781 24.4412 35.9532 24.2205 36.1569 23.9401C36.3605 23.6597 36.4852 23.3298 36.5181 22.9849C36.4498 23.2973 36.3095 23.5894 36.1085 23.8382C35.9076 24.0869 35.6513 24.2853 35.3602 24.4177Z" fill="black"/>
<path opacity="0.25" d="M13.8211 9.31295L35.3603 21.5509C35.6515 21.6833 35.9078 21.8818 36.1088 22.1306C36.3098 22.3795 36.45 22.6718 36.5182 22.9843C36.4855 22.6392 36.3609 22.3092 36.1572 22.0287C35.9536 21.7481 35.6784 21.5274 35.3603 21.3895L13.8211 9.15158C12.2774 8.27449 11.0146 9.00303 11.0146 10.7711V10.9325C11.0146 9.1645 12.2774 8.43597 13.8211 9.31295Z" fill="white"/>
</g>
<defs>
<linearGradient id="paint0_linear_648_3100" x1="24.0779" y1="10.513" x2="5.54162" y2="29.0493" gradientUnits="userSpaceOnUse">
<stop stop-color="#00A0FF"/>
<stop offset="0.00657" stop-color="#00A1FF"/>
<stop offset="0.2601" stop-color="#00BEFF"/>
<stop offset="0.5122" stop-color="#00D2FF"/>
<stop offset="0.7604" stop-color="#00DFFF"/>
<stop offset="1" stop-color="#00E3FF"/>
</linearGradient>
<linearGradient id="paint1_linear_648_3100" x1="37.3701" y1="22.9853" x2="10.6445" y2="22.9853" gradientUnits="userSpaceOnUse">
<stop stop-color="#FFE000"/>
<stop offset="0.4087" stop-color="#FFBD00"/>
<stop offset="0.7754" stop-color="#FFA500"/>
<stop offset="1" stop-color="#FF9C00"/>
</linearGradient>
<linearGradient id="paint2_linear_648_3100" x1="27.4215" y1="25.5193" x2="2.28476" y2="50.656" gradientUnits="userSpaceOnUse">
<stop stop-color="#FF3A44"/>
<stop offset="1" stop-color="#C31162"/>
</linearGradient>
<linearGradient id="paint3_linear_648_3100" x1="8.05986" y1="1.08756" x2="19.2844" y2="12.3121" gradientUnits="userSpaceOnUse">
<stop stop-color="#32A071"/>
<stop offset="0.0685" stop-color="#2DA771"/>
<stop offset="0.4762" stop-color="#15CF74"/>
<stop offset="0.8009" stop-color="#06E775"/>
<stop offset="1" stop-color="#00F076"/>
</linearGradient>
<clipPath id="clip0_648_3100">
<rect width="149.109" height="44.1805" fill="white" transform="translate(0 0.893066)"/>
</clipPath>
</defs>
</svg>
