<svg width="11" height="14" viewBox="0 0 11 14" fill="none" xmlns="http://www.w3.org/2000/svg">
<path fill-rule="evenodd" clip-rule="evenodd" d="M8.84814 5.11067H8.99993C9.82836 5.11067 10.4999 5.78225 10.4999 6.61067V11.8636C10.4999 12.6921 9.82836 13.3636 8.99993 13.3636H2.28564C1.45722 13.3636 0.785645 12.6921 0.785645 11.8636V6.61067C0.785645 5.78225 1.45722 5.11067 2.28564 5.11067H2.43992V3.07912C2.43992 1.37857 3.87445 0 5.64403 0C7.41361 0 8.84814 1.37857 8.84814 3.07912V5.11067ZM7.78011 5.11067V3.07912C7.78011 1.94542 6.82375 1.02637 5.64403 1.02637C4.46431 1.02637 3.50796 1.94542 3.50796 3.07912V5.11067H7.78011Z" fill="black"/>
</svg>
