<svg width="37" height="146" viewBox="0 0 37 146" fill="none" xmlns="http://www.w3.org/2000/svg">
<path fill-rule="evenodd" clip-rule="evenodd" d="M36.4919 3.0336C36.0342 3.05653 35.9641 3.07864 35.475 3.35571C35.1014 3.56755 35.0628 3.50964 35.1915 2.93139C35.3904 2.03722 35.1654 1.84048 33.556 1.50135C32.8052 1.34327 31.8073 1.02289 31.3387 0.789591C29.6461 -0.0530172 29.2578 -0.120133 28.8937 0.368235C28.7101 0.614367 28.5416 0.691034 28.5193 0.538111C28.461 0.137142 27.6388 0.318178 27.0652 0.858463C26.6301 1.26797 26.529 1.28268 26.1982 0.984608C25.8046 0.62977 25.0456 0.630103 24.7807 0.984939C24.6947 1.10014 24.331 1.27799 23.9719 1.38026C23.0854 1.63284 21.9225 2.82502 22.156 3.24154C22.3007 3.49971 22.1589 3.56401 21.5419 3.5196C21.0489 3.48413 20.7549 3.5666 20.7792 3.73352C20.801 3.88308 20.6466 3.96641 20.4359 3.91873C20.2254 3.87127 19.9942 3.96817 19.9223 4.13427C19.8503 4.3001 19.5776 4.46708 19.3161 4.50514C19.0546 4.54319 18.8005 4.75246 18.7513 4.97058C18.7022 5.18839 18.203 5.56462 17.6419 5.80691C16.9603 6.10115 16.5568 6.47112 16.4257 6.92214C16.3177 7.29306 15.86 7.79452 15.4084 8.03623C14.9569 8.27795 14.6108 8.63559 14.6392 8.83076C14.6889 9.17237 14.0452 10.2385 13.8545 10.1302C13.551 9.95755 12.733 10.2825 12.7733 10.5596C12.8405 11.0214 11.9744 11.9645 11.7399 11.685C11.4969 11.3956 9.33667 14.2265 9.41089 14.7365C9.4759 15.1834 8.78489 16.0952 8.3313 16.1612C7.80514 16.2377 6.70701 17.9533 6.92973 18.3507C7.04271 18.5524 7.00617 18.7361 6.84833 18.759C6.69048 18.782 6.58686 18.9757 6.61797 19.1896C6.64908 19.4034 6.45397 19.6104 6.18415 19.6497C5.87752 19.6943 5.66841 19.9725 5.62552 20.3927C5.58796 20.7621 5.40308 21.0867 5.2149 21.1141C5.02673 21.1415 4.78614 21.6545 4.68045 22.2543C4.57503 22.854 4.3517 23.4966 4.1842 23.6824C4.01692 23.868 3.90334 24.1807 3.93189 24.3769C3.96048 24.5733 3.8089 24.7595 3.59507 24.7906C3.31437 24.8315 3.24818 25.1351 3.35713 25.8839C3.4401 26.4542 3.39497 26.9372 3.25682 26.9573C3.11893 26.9773 3.09851 27.1589 3.21153 27.3609C3.3248 27.5627 3.29557 27.7457 3.14653 27.7673C2.9975 27.789 2.90865 28.0698 2.94886 28.3916C2.98933 28.7134 3.0571 29.2393 3.09964 29.5607C3.15215 29.9562 3.02017 30.1678 2.69099 30.2157C2.31361 30.2706 2.20381 30.5529 2.19976 31.4782C2.19701 32.1361 2.05402 32.6905 1.88088 32.7157C1.47006 32.7755 1.29359 36.3269 1.69798 36.3994C2.12137 36.4751 2.14744 37.1764 1.72885 37.2373C1.32011 37.2968 1.13301 37.8846 1.25524 38.7247C1.30079 39.0378 1.21187 39.5472 1.05732 39.8566C0.719921 40.5338 0.895325 43.604 1.31571 44.3776C1.54125 44.7926 1.52056 44.9433 1.23312 44.9851C0.776945 45.0515 0.779421 45.1795 1.24949 45.8162C1.52713 46.1927 1.52497 46.418 1.23937 46.8436C1.0382 47.1436 0.956634 47.5327 1.0584 47.7082C1.19763 47.9483 1.23704 47.9463 1.21688 47.7004C1.20212 47.5208 1.36517 47.348 1.579 47.3169C2.0147 47.2535 2.17357 47.6669 1.78784 47.8609C1.52989 47.9908 1.41062 48.75 1.43327 50.1172C1.45751 51.5718 2.08859 55.902 2.31621 56.173C2.43953 56.3202 2.41525 56.459 2.26207 56.4813C1.93031 56.5295 2.20465 58.0695 2.6176 58.4774C2.77651 58.6345 2.86236 58.9589 2.80831 59.1986C2.66461 59.8355 3.14939 60.8517 3.56799 60.7908C3.76653 60.7619 3.94576 60.8549 3.9665 60.9975C3.98724 61.14 3.84169 61.2803 3.64315 61.3092C3.11285 61.3864 3.08641 61.8796 3.52832 63.4433C3.74556 64.2124 3.89341 64.9794 3.85706 65.1479C3.82046 65.3166 4.00722 65.616 4.27176 65.8134C4.53659 66.0109 4.68908 66.3204 4.6108 66.5009C4.52559 66.6975 4.57112 66.743 4.72444 66.6143C4.86526 66.4962 5.07098 66.5075 5.18174 66.6394C5.29224 66.7712 5.25919 66.897 5.10834 66.9189C4.80198 66.9635 4.92733 68.338 5.26075 68.5868C5.62861 68.8612 6.9178 72.7009 6.76219 73.0594C6.68077 73.2476 6.68888 73.5344 6.78002 73.6968C6.87119 73.8596 6.56651 74.2978 6.10305 74.6706C5.57683 75.0942 5.2893 75.5465 5.33719 75.8757C5.37939 76.1657 5.24594 76.4273 5.0404 76.4572C4.54975 76.5286 4.30988 77.1029 4.70003 77.2722C5.11698 77.4529 4.31991 79.7951 3.87575 79.6948C3.45156 79.5991 3.31321 80.1999 3.60205 80.8826C3.75336 81.2404 3.66151 81.6023 3.31817 82.0003C2.7703 82.6353 2.95557 83.3775 3.63725 83.2784C3.97134 83.2297 3.99388 83.2918 3.76349 83.6239C3.60875 83.8465 3.32791 83.9938 3.13882 83.9512C2.94587 83.9075 2.80869 84.0871 2.82599 84.3606C2.88078 85.2356 2.86949 85.3709 2.71195 85.7289C2.62619 85.9235 2.63778 86.1796 2.7374 86.2985C2.83727 86.4174 2.84889 86.8283 2.76361 87.2118C2.66134 87.6713 2.70574 87.951 2.89416 88.0326C3.07775 88.1121 3.08095 88.3178 2.90309 88.6089C2.72719 88.897 2.73883 89.9194 2.93533 91.4209C3.18387 93.3219 3.33464 93.8306 3.71178 94.0396C4.13984 94.2767 4.14111 94.3054 3.7275 94.3732C3.17507 94.4639 3.23189 95.2055 3.8011 95.3339C4.34022 95.4556 4.42279 96.1068 3.93385 96.381C3.50361 96.622 3.83471 97.7897 4.40337 98.0362C4.62516 98.1326 4.60277 98.3534 4.32935 98.7609C4.01656 99.2269 4.0044 99.64 4.27031 100.782C4.45426 101.571 4.68326 102.276 4.77946 102.347C4.87565 102.419 4.88329 102.681 4.79659 102.929C4.7033 103.196 4.85789 103.891 5.17346 104.626C5.46741 105.311 5.80177 106.48 5.91626 107.223C6.09427 108.377 6.18418 108.54 6.53412 108.344C6.84515 108.17 6.91863 108.225 6.83942 108.576C6.69172 109.231 8.50028 115.125 9.45584 117.103C9.68539 117.578 9.92237 118.305 9.98244 118.717C10.0425 119.13 10.2964 119.577 10.5468 119.709C10.8433 119.866 11.0695 120.37 11.1958 121.154C11.3243 121.952 11.5227 122.387 11.7851 122.446C12.0029 122.495 12.1424 122.706 12.0955 122.915C12.0483 123.123 12.2199 123.961 12.4769 124.776C12.7339 125.591 13.0233 126.552 13.1204 126.912C13.2172 127.272 13.4156 127.708 13.561 127.881C13.7064 128.054 13.9025 128.435 13.9965 128.726C14.5628 130.479 14.7512 130.891 14.971 130.859C15.1058 130.84 15.1646 130.942 15.102 131.087C15.0392 131.232 15.1172 131.406 15.2751 131.474C15.433 131.543 15.646 132.175 15.7485 132.879C15.8952 133.888 16.0242 134.147 16.3552 134.099C16.6997 134.049 16.7278 134.116 16.5097 134.473C16.2922 134.83 16.319 134.898 16.6578 134.849C16.9844 134.801 17.0622 134.967 17.0269 135.634C16.9891 136.347 17.0454 136.443 17.388 136.251C17.6525 136.103 17.8133 136.156 17.8494 136.404C17.8798 136.614 17.7295 136.81 17.5157 136.842C17.2195 136.885 17.3827 137.244 18.1978 138.346C19.1604 139.647 19.332 139.767 19.8934 139.538C20.2369 139.398 21.1223 139.061 21.8611 138.791C23.7323 138.105 23.7806 137.638 22.5148 132.475C22.4718 132.299 22.3394 132.169 22.2204 132.187C22.1017 132.204 21.9716 131.992 21.9313 131.715C21.8911 131.438 21.748 131.164 21.6135 131.106C21.479 131.048 21.3829 130.689 21.3995 130.308C21.4164 129.928 21.2608 129.382 21.0536 129.095C20.6596 128.55 19.9357 126.735 19.4644 125.111C19.3125 124.587 19.0425 124.179 18.8645 124.205C18.6553 124.236 18.4653 123.817 18.3287 123.026C17.9111 120.609 17.773 120.271 17.1305 120.094C16.4963 119.919 16.2457 119.558 16.7118 119.49C17.0324 119.443 16.7464 117.303 16.3804 117.01C16.1234 116.805 15.6317 115.524 14.532 112.197C14.1513 111.046 13.899 110.634 13.599 110.675C13.3015 110.715 13.2678 110.662 13.4772 110.482C13.6955 110.294 13.6511 109.867 13.2967 108.745C13.0384 107.927 12.718 107.205 12.5848 107.141C12.4516 107.076 12.2113 106.331 12.0507 105.484C11.8904 104.636 11.6679 103.835 11.5568 103.703C11.3347 103.439 10.1234 99.8701 10.0782 99.3468C10.0131 98.5921 9.8632 97.7691 9.5397 96.388C9.35097 95.5819 9.28262 94.8503 9.38807 94.7619C9.49326 94.6735 9.43769 94.0533 9.26431 93.3837C8.80227 91.5998 8.71495 90.9468 8.84694 90.2622C8.93671 89.7968 8.86731 89.6637 8.55862 89.7086C8.33519 89.7411 8.1355 89.6511 8.11475 89.5085C8.09401 89.366 8.24085 89.2255 8.44121 89.1964C8.70169 89.1585 8.74776 88.8529 8.60323 88.1233C8.49169 87.5623 8.30938 87.0351 8.19801 86.9518C8.08637 86.8685 8.2031 86.5593 8.4577 86.2645C8.82593 85.8375 8.85908 85.5505 8.621 84.8546C8.43875 84.3224 8.42206 83.8966 8.5787 83.7653C8.72022 83.6465 8.79579 83.2745 8.74688 82.9383C8.698 82.6024 8.77833 82.2667 8.92508 82.193C9.07205 82.1189 9.11211 81.5064 9.01398 80.832C8.87747 79.8938 8.94189 79.5271 9.28824 79.2715C9.64193 79.0102 9.82305 79.0344 10.1177 79.3822C10.3248 79.6271 10.6813 79.7483 10.9091 79.6519C11.1373 79.5554 11.5148 79.6485 11.7481 79.8588C12.1134 80.1881 12.1208 80.2916 11.8007 80.6058C11.4639 80.9361 11.4769 81.0364 11.9383 81.6733C12.2184 82.0597 12.6287 82.5111 12.8499 82.6761C13.071 82.8409 13.2817 83.1805 13.318 83.4306C13.3544 83.6808 13.7156 84.1168 14.1207 84.3998C14.5259 84.6828 14.8806 85.0746 14.9091 85.2703C14.9376 85.4659 15.2918 85.854 15.6962 86.1324C16.1007 86.411 16.4508 86.7711 16.4744 86.9331C16.5366 87.3602 16.8079 87.253 17.1272 86.6753C17.386 86.2073 17.4107 86.2027 17.478 86.6124C17.5582 87.0996 19.067 88.3433 19.3896 88.1881C19.5019 88.1342 19.5368 88.2212 19.4672 88.3814C19.3368 88.6822 19.5296 88.7487 20.788 88.8387C21.3732 88.8804 21.5106 88.7971 21.4607 88.432C21.4222 88.1496 21.4875 88.0721 21.6298 88.2303C21.9218 88.5544 23.9868 88.5358 24.929 88.2005C25.32 88.0613 25.9494 87.5608 26.3274 87.0884C26.7057 86.616 27.0694 86.2213 27.1358 86.2117C27.2021 86.202 27.4138 85.9833 27.6061 85.7256C27.7981 85.4682 28.1795 85.2825 28.4533 85.313C28.7272 85.3436 28.9348 85.2546 28.9145 85.1152C28.8942 84.9757 29.0404 84.6435 29.2395 84.3765C29.4767 84.0586 29.4951 83.8725 29.2932 83.8362C28.8152 83.7506 28.8468 83.2077 29.3589 82.7121C29.6577 82.423 29.7796 81.9656 29.7014 81.4283C29.6347 80.9693 29.6862 80.5047 29.8159 80.3958C29.9456 80.287 30.0348 80.0813 30.0141 79.9387C29.9933 79.7962 29.8966 79.7462 29.7994 79.8278C29.7023 79.9095 29.5666 79.7066 29.4983 79.3775C29.4187 78.9923 29.4973 78.8065 29.7187 78.8563C29.9127 78.9001 30.0935 78.6634 30.1331 78.3135C30.1715 77.972 30.0984 77.673 29.9702 77.6488C29.842 77.6248 29.6899 76.8704 29.6321 75.9728C29.5598 74.85 29.3382 73.9707 28.9223 73.1556C28.2259 71.7911 27.343 70.498 26.9989 70.3393C26.8686 70.2791 26.6902 69.962 26.6025 69.6344C26.4165 68.9397 24.8249 67.4911 24.327 67.5635C24.1393 67.5908 23.9519 67.3799 23.9105 67.0948C23.8686 66.8068 23.6622 66.6015 23.4463 66.6329C23.2324 66.6641 23.0422 66.5845 23.0235 66.456C23.0048 66.3274 22.5884 66.2925 22.0982 66.3781C21.4416 66.4927 21.0096 66.3745 20.4575 65.9289C20.0452 65.5964 19.5196 65.3515 19.2897 65.385C19.0598 65.4184 18.6149 65.3529 18.3012 65.2395C17.8886 65.0904 17.6638 65.1231 17.4889 65.3577C17.3558 65.5361 17.0464 65.7114 16.8018 65.747C16.5571 65.7826 16.3314 65.9543 16.3001 66.1285C16.2577 66.3647 16.0262 66.4032 15.39 66.2803C14.7209 66.1511 14.4846 66.2008 14.295 66.5111C14.1623 66.7286 13.694 67.0413 13.255 67.2055C12.8158 67.37 12.4083 67.6111 12.3492 67.7415C11.9953 68.5237 9.89066 66.956 10.0928 66.0606C10.1402 65.8499 9.93035 65.4479 9.6264 65.1671C9.06596 64.6497 8.9589 63.7119 9.45188 63.6402C9.59988 63.6187 9.50796 63.4235 9.24748 63.2068C8.98726 62.99 8.73031 62.521 8.67665 62.1649C8.62324 61.8088 8.3154 59.7512 7.99286 57.5926C7.423 53.7778 6.92617 52.1604 6.44805 52.5616C6.3138 52.6741 6.25517 52.5767 6.31021 52.3329C6.36302 52.0992 6.56868 51.8845 6.76722 51.8556C6.96576 51.8267 7.11183 51.6901 7.09173 51.5519C7.07167 51.414 6.89004 51.3936 6.68812 51.5066C6.22881 51.7643 6.13409 51.1897 6.52058 50.4898C6.698 50.1683 6.70745 49.1672 6.54574 47.8393C6.0311 43.6182 5.99946 43.0315 6.26323 42.5996C6.56823 42.0999 6.28624 39.2504 5.81134 38.0329C5.55725 37.3817 5.57447 37.2072 5.89794 37.1601C6.12966 37.1264 6.32303 36.7873 6.35046 36.3664C6.37664 35.9624 6.50862 35.3178 6.64338 34.9342C6.77815 34.5507 6.88763 33.6714 6.88706 32.9799C6.88592 31.906 6.82223 31.7321 6.44952 31.7863C6.09106 31.8384 6.06048 31.772 6.27917 31.4141C6.4256 31.1744 6.72077 30.9528 6.93538 30.9216C7.24278 30.8768 7.26103 30.6585 7.0218 29.8929C6.75897 29.0524 6.79275 28.8662 7.27171 28.5125C7.64455 28.2372 7.87163 27.6714 7.96697 26.7804C8.04454 26.0529 8.21398 25.442 8.34332 25.4231C8.47291 25.4043 8.53409 25.068 8.47937 24.6755C8.42082 24.2531 8.61156 23.6685 8.94712 23.2425C9.38049 22.6919 9.42699 22.484 9.14445 22.3575C8.86814 22.2339 8.88943 22.1747 9.22826 22.1222C9.47756 22.0838 9.66431 21.9357 9.64357 21.7932C9.62282 21.6506 9.79377 21.5066 10.0234 21.4732C10.3624 21.4239 10.3828 21.2417 10.1315 20.5081C9.85227 19.693 9.87362 19.6123 10.3471 19.6901C10.708 19.7495 10.8998 19.625 10.9597 19.2931C11.0784 18.6353 11.5027 17.7261 11.8217 17.4462C11.966 17.3194 12.1787 16.8433 12.294 16.3882C12.4094 15.9331 12.6006 15.6027 12.7189 15.6541C12.8376 15.7056 12.9525 15.4038 12.9748 14.984C13.003 14.4521 13.2086 14.1406 13.6519 13.9583C14.002 13.8142 14.2623 13.5167 14.2303 13.2971C14.1984 13.0776 14.2898 12.9489 14.4336 13.0114C14.7729 13.1584 15.973 12.388 15.7742 12.1509C15.6906 12.0514 15.9502 11.7637 16.3511 11.5117C16.7519 11.2596 17.0672 10.9655 17.0515 10.8576C17.0359 10.7498 17.198 10.6362 17.4118 10.6051C17.6257 10.574 17.7778 10.3915 17.7498 10.1994C17.6572 9.56259 19.0498 7.9847 19.8009 7.87541C19.9513 7.85354 20.3646 7.54751 20.7197 7.19544C21.075 6.84334 21.5309 6.50597 21.7333 6.44555C21.9355 6.38517 22.4276 6.02323 22.8265 5.64149C23.2257 5.25997 23.6799 4.92894 23.8359 4.90624C23.9922 4.8835 24.3279 4.58611 24.582 4.24557C24.8759 3.85158 25.4469 3.53954 26.1501 3.38827C27.4757 3.10329 27.8242 2.85143 27.5558 2.37278C27.3802 2.05953 27.4542 2.04904 28.1471 2.28939C28.8817 2.54459 28.9474 2.52523 29.0542 2.02401C29.2237 1.22648 29.7704 1.26552 29.7346 2.07244C29.7079 2.67847 29.7422 2.70312 30.0697 2.31297C30.3833 1.93942 30.4894 1.92266 30.8218 2.19401C31.0459 2.3766 31.0955 2.5266 30.9397 2.54927C30.7917 2.5708 30.6978 2.77688 30.7314 3.00756C30.7731 3.29423 30.9446 3.3619 31.2748 3.22229C31.5538 3.10441 31.8379 3.16153 31.9481 3.35831C32.0528 3.54528 32.2969 3.67518 32.4903 3.64705C32.6839 3.61888 33.1449 3.83686 33.5152 4.13157C34.2387 4.70706 35.4175 4.60648 36.3936 3.88588C36.9472 3.4774 37.0014 3.00791 36.4919 3.0336ZM29.0048 3.11637C28.7047 3.17275 28.6522 3.24311 28.8708 3.29574C29.0688 3.34342 29.2912 3.30154 29.3647 3.20297C29.4382 3.1044 29.2764 3.06548 29.0048 3.11637ZM24.6974 80.0818C24.6629 80.9603 24.5155 81.875 24.3696 82.1146C24.2237 82.3542 24.0644 82.8133 24.0156 83.1348C23.8699 84.0925 23.4373 84.4042 22.6008 84.1543C22.1962 84.0335 21.8411 83.7755 21.8117 83.5807C21.7782 83.3593 21.5786 83.3028 21.2781 83.4299C20.9336 83.5759 20.8232 83.5212 20.8875 83.2372C20.9436 82.9879 20.7645 82.8175 20.4037 82.7774C20.0884 82.742 19.8071 82.5519 19.7784 82.3546C19.7498 82.1576 19.6097 82.0131 19.4671 82.0339C19.3245 82.0546 19.1824 81.8966 19.1513 81.6828C19.1202 81.469 19.0004 81.3077 18.8851 81.3245C18.7697 81.3413 18.2977 80.7562 17.8357 80.0241C17.3737 79.2923 16.9209 78.7031 16.8292 78.7148C16.7378 78.7268 16.5415 78.442 16.3933 78.0819C16.2451 77.7221 15.9526 77.2996 15.743 77.1432C15.5333 76.9868 15.05 76.2081 14.6693 75.4123C14.2883 74.6168 13.8658 73.9138 13.73 73.8502C13.0627 73.5371 13.0871 72.5259 13.7819 71.6967C14.1734 71.2294 14.6354 70.8264 14.8083 70.8012C14.9812 70.776 15.1644 70.5707 15.2154 70.3449C15.2662 70.1192 15.4828 69.909 15.6967 69.8779C15.9497 69.8411 16.0116 69.6701 15.8743 69.3889C15.7561 69.1472 16.0886 69.2934 16.6285 69.7206C17.4915 70.4037 17.6651 70.4454 18.2628 70.1146C18.8218 69.8054 18.9366 69.8141 18.9622 70.1669C18.9791 70.3992 19.1703 70.5797 19.3869 70.5678C19.6035 70.5558 19.9284 70.5382 20.1091 70.5289C20.2895 70.5193 20.4591 70.6606 20.4856 70.8428C20.5751 71.4578 21.6372 71.8994 22.5134 71.6856C22.9776 71.5723 23.1025 71.5684 22.7906 71.6773C22.1377 71.9049 22.1407 73.0227 22.7947 73.17C23.012 73.2191 23.3285 73.6638 23.4977 74.1577C23.667 74.6518 23.9001 75.0972 24.0157 75.1474C24.3471 75.2911 24.7658 78.3237 24.6974 80.0818ZM26.6134 116.028C25.823 115.947 24.9841 117.156 25.5042 117.626C25.7377 117.837 25.7577 118.018 25.5744 118.264C25.4333 118.453 25.3701 118.967 25.4339 119.406C25.4978 119.844 25.4254 120.457 25.2734 120.766C25.1212 121.075 24.9842 121.658 24.9689 122.06C24.9468 122.645 25.0384 122.778 25.4238 122.722C26.0513 122.63 26.1265 123.16 25.5221 123.416C25.1713 123.564 25.0648 123.947 25.0918 124.964C25.1135 125.777 25.2428 126.364 25.4171 126.44C25.5982 126.518 25.5754 126.711 25.3564 126.954C25.1153 127.221 25.0839 127.671 25.2557 128.4C25.3931 128.983 25.4198 129.932 25.3155 130.511C25.2111 131.089 25.2047 131.703 25.3015 131.875C25.398 132.048 25.3639 132.284 25.2251 132.4C24.8001 132.757 25.0516 133.363 25.5923 133.284C26.2423 133.19 26.1288 133.79 25.4109 134.243C24.6758 134.706 24.4991 136.572 25.1573 136.92C25.5074 137.105 25.5554 137.246 25.359 137.509C25.217 137.7 24.941 137.879 24.7453 137.907C24.511 137.941 24.4528 138.197 24.574 138.66C24.7039 139.154 24.6482 139.353 24.3848 139.335C23.8448 139.298 23.6348 139.941 23.927 140.738C24.1582 141.368 24.1163 141.433 23.4403 141.489C23.0336 141.523 22.5749 141.505 22.4211 141.448C22.2672 141.391 21.7493 141.388 21.2701 141.44C20.7912 141.492 20.2902 141.405 20.1567 141.246C20.0235 141.087 19.7466 140.948 19.5412 140.938C18.1674 140.868 17.6788 140.689 17.6126 140.235C17.5545 139.835 17.4192 139.789 16.9133 139.997C16.5324 140.154 15.7225 140.127 14.8518 139.927C14.063 139.747 13.241 139.613 13.0252 139.63C12.8093 139.647 12.1407 139.664 11.5396 139.667C10.2197 139.674 10.0373 139.977 10.742 140.99C11.3848 141.916 12.3886 142.233 12.5604 141.566C12.6537 141.203 12.6933 141.218 12.771 141.649C12.8846 142.279 14.0972 143.525 14.6309 143.561C14.8376 143.575 15.51 143.745 16.1253 143.939C16.7403 144.133 17.5134 144.253 17.8431 144.205C18.1727 144.157 18.4413 144.207 18.44 144.317C18.4333 144.851 18.6271 145.15 18.9503 145.102C19.1465 145.074 19.4851 145.211 19.7026 145.407C19.9597 145.639 20.3088 145.677 20.6997 145.516C21.0845 145.358 21.255 145.374 21.1736 145.562C21.1034 145.724 21.1698 145.838 21.3206 145.816C21.4715 145.794 21.5787 145.663 21.5586 145.525C21.5385 145.387 21.7084 145.316 21.9361 145.368C22.1638 145.419 22.5026 145.292 22.689 145.085C22.9244 144.824 23.0408 144.798 23.0702 145C23.0935 145.16 23.2875 145.265 23.5013 145.234C23.7152 145.203 23.8647 145.003 23.8335 144.789C23.8022 144.573 24.0071 144.367 24.2935 144.325C24.9617 144.228 26.7661 143.115 26.724 142.825C26.7062 142.703 26.4393 142.575 26.1307 142.541C25.715 142.494 25.6497 142.411 25.8785 142.219C26.0582 142.068 26.2883 142.078 26.4294 142.242C26.6145 142.457 26.6617 142.446 26.6288 142.199C26.605 142.02 26.7605 141.849 26.9744 141.818C27.2281 141.781 27.3262 141.507 27.2566 141.029C27.1913 140.58 27.3695 140.02 27.7159 139.585C28.0274 139.194 28.202 138.731 28.104 138.556C28.0061 138.381 28.039 138.222 28.1769 138.202C28.315 138.182 28.4042 138.001 28.375 137.801C28.3417 137.571 28.148 137.51 27.853 137.635C27.4705 137.796 27.3394 137.665 27.1404 136.919C27.0064 136.417 26.9612 135.998 27.0397 135.989C27.3346 135.955 27.8146 136.283 27.9916 136.641C28.1213 136.903 28.2612 136.762 28.4711 136.158C28.6491 135.646 28.6607 135.178 28.5 134.987C28.3533 134.812 28.2751 134.482 28.3264 134.254C28.3945 133.953 28.3083 133.902 28.0105 134.069C27.5081 134.351 27.4625 134.107 27.8767 133.353C28.0492 133.04 28.2779 132.18 28.3851 131.443C28.5394 130.379 28.5063 130.07 28.2249 129.944C27.991 129.839 27.97 129.769 28.1635 129.738C28.789 129.639 28.5317 128.37 27.7592 127.747L27.0026 127.137L27.6054 126.894L28.2085 126.651L27.4785 126.572C26.9355 126.514 26.7754 126.375 26.8529 126.031C26.9184 125.741 27.0126 125.679 27.1061 125.865C27.188 126.028 27.3742 126.143 27.5201 126.122C27.6661 126.101 27.7027 125.936 27.6018 125.755C27.5006 125.575 27.498 125.248 27.5958 125.028C27.7256 124.738 27.8034 124.823 27.8817 125.342C27.9408 125.733 28.1059 126.037 28.2485 126.016C28.6157 125.963 28.2564 123.804 27.8271 123.484C27.5501 123.277 27.5418 123.208 27.7909 123.171C28.027 123.137 28.0216 123.004 27.7698 122.662C27.266 121.98 27.1888 120.956 27.6224 120.713C27.9308 120.54 27.93 120.087 27.6188 118.296C27.2597 116.23 27.1966 116.087 26.6134 116.028ZM26.4828 118.565C26.5802 118.681 26.5327 118.917 26.3776 119.09C26.1583 119.333 26.0781 119.144 26.0194 118.245C25.9356 116.958 26.0129 116.871 26.7393 117.435C27.2105 117.801 27.2124 117.842 26.7734 118.09C26.516 118.235 26.3852 118.449 26.4828 118.565ZM26.6035 120.168C26.461 120.189 26.3264 120.082 26.3044 119.931C26.2825 119.78 26.3916 119.712 26.547 119.779C26.7023 119.847 26.8369 119.953 26.8461 120.016C26.8553 120.079 26.7461 120.147 26.6035 120.168ZM26.8675 121.982C26.725 122.003 26.5914 121.903 26.5706 121.761C26.5499 121.618 26.6495 121.485 26.7921 121.464C26.9346 121.443 27.0683 121.543 27.089 121.685C27.1097 121.828 27.0101 121.962 26.8675 121.982ZM26.2855 123.895C25.9405 124.248 25.8737 124.247 25.8213 123.887C25.7837 123.629 25.9765 123.435 26.3218 123.385C26.6305 123.34 26.8395 123.343 26.786 123.392C26.7323 123.442 26.5074 123.667 26.2855 123.895ZM27.5887 132.396C27.3485 132.501 27.3061 132.468 27.4693 132.303C27.609 132.163 27.7717 131.862 27.8305 131.635C27.9061 131.345 27.9416 131.373 27.9499 131.728C27.9568 132.006 27.7941 132.307 27.5887 132.396ZM19.8116 144.888C19.6228 144.842 19.7602 144.762 20.1165 144.71C20.4729 144.658 20.6272 144.696 20.4595 144.793C20.2917 144.891 20.0001 144.934 19.8116 144.888ZM18.4839 136.264C18.2635 136.215 18.1304 136.066 18.188 135.934C18.2452 135.801 18.4723 135.734 18.6923 135.783C18.9126 135.833 19.0457 135.982 18.9882 136.114C18.9309 136.246 18.7039 136.314 18.4839 136.264ZM16.4298 139.382C16.2873 139.402 16.1876 139.536 16.2083 139.679C16.2291 139.821 16.3627 139.921 16.5052 139.9C16.6478 139.879 16.7475 139.746 16.7267 139.603C16.706 139.461 16.5724 139.361 16.4298 139.382ZM8.62461 95.8906C8.07767 96.1973 8.02767 96.1866 7.96421 95.7504C7.93279 95.5345 8.13806 95.3281 8.42602 95.2862C9.04393 95.1963 9.17158 95.5842 8.62461 95.8906ZM7.02748 107.846C6.80887 107.793 6.86137 107.723 7.16152 107.666C7.43308 107.615 7.5949 107.654 7.52137 107.753C7.44784 107.851 7.22551 107.893 7.02748 107.846Z" fill="#002616"/>
</svg>
