<svg width="91" height="87" viewBox="0 0 91 87" fill="none" xmlns="http://www.w3.org/2000/svg">
<path fill-rule="evenodd" clip-rule="evenodd" d="M1.50206 2.22868C1.14146 3.61098 0.840964 5.02332 0.720764 6.43567C0.330116 11.424 -0.120631 28.1618 0.0296181 31.5273C0.0296181 32.549 0.209917 33.6909 0.630615 34.6225C1.38186 36.2752 3.30506 36.3954 4.3568 34.8629C4.74745 34.322 4.98785 33.6008 5.10805 32.9096C5.4386 30.8963 5.70905 28.883 5.8593 26.8696C6.28 20.7995 6.67065 14.6994 6.94109 8.62932C7.03124 6.61597 6.82089 4.57258 6.58049 2.55923C6.40019 1.05674 5.16815 -0.085159 4.02625 0.00499076C2.67401 0.12519 1.83261 0.996637 1.50206 2.22868ZM42.9209 40.9475L42.9209 40.9472C43.1239 40.0666 43.3063 39.2756 43.5721 38.4985C47.4786 26.9594 53.7591 16.6823 60.9109 6.91608C61.7523 5.77418 62.8041 4.69239 63.976 3.97119C64.6071 3.58054 65.8692 3.64064 66.5904 4.03129C67.1313 4.33179 67.5219 5.50373 67.4017 6.16483C67.1914 7.42693 66.7406 8.71908 66.1096 9.86097C61.9627 17.4035 57.7857 24.916 53.5487 32.3984C52.3023 34.5854 51.0008 36.7541 49.7016 38.9187L49.7015 38.9188C49.3406 39.5202 48.9798 40.1212 48.6205 40.7222C48.0796 41.6538 47.4786 42.5553 46.8476 43.3967C46.1564 44.3583 45.1047 44.9292 44.0529 44.2982C43.9865 44.2577 43.9196 44.2184 43.8528 44.1792C43.2243 43.8103 42.6105 43.4499 42.6105 42.2548C42.7257 41.794 42.8256 41.3609 42.9209 40.9475ZM85.161 87C84.6789 86.9196 84.1699 86.846 83.6453 86.7701L83.6449 86.77C82.6001 86.6189 81.4933 86.4587 80.4131 86.2187C74.0125 84.7763 67.6118 83.3339 61.2413 81.8314C59.859 81.5009 58.5067 80.9299 57.2747 80.2688C55.6219 79.3974 55.051 78.1653 55.3214 76.8131C55.5919 75.4608 56.6737 74.6195 58.5668 74.5894C59.859 74.5593 61.2413 74.5894 62.4733 74.8899C70.5567 76.9333 78.6402 79.0368 86.6935 81.1703C87.595 81.4107 88.5266 81.8314 89.2177 82.4324C90.9606 83.9049 90.4197 86.2187 88.196 86.7896C87.6452 86.9226 87.0464 86.9355 86.3843 86.9498H86.3842C85.9988 86.9581 85.5921 86.9668 85.161 87Z" fill="#7DD13A"/>
</svg>
