<svg width="110" height="215" viewBox="0 0 110 215" fill="none" xmlns="http://www.w3.org/2000/svg">
<path d="M109.137 210.271C109.105 211.356 108.656 212.388 107.884 213.151C107.111 213.914 106.074 214.35 104.988 214.369C103.37 214.318 101.815 213.726 100.573 212.688C99.0482 211.496 97.6194 210.187 96.2994 208.772C94.6928 207.196 92.368 204.9 90.9489 203.141C89.2316 201.014 79.9626 188.577 78.7846 186.695C77.0349 183.901 73.1355 176.313 72.46 174.866C72.0153 173.843 71.5706 172.821 71.0821 171.698C67.0944 174.049 63.6325 172.507 61.0286 170.904C58.6885 169.462 57.2386 167.146 55.5443 164.944C52.5652 161.023 49.8844 156.885 47.5243 152.563C40.004 139.255 34.877 124.906 28.6178 111.003C27.2641 108.018 26.1162 104.934 24.9252 101.879C22.1302 94.7189 19.3654 87.5582 16.631 80.3966C15.8379 78.3191 10.1426 61.0119 9.64382 59.0183C9.03285 56.5761 6.39627 46.4491 5.87623 44.0042C5.17826 40.8538 3.35541 31.2847 3.10965 29.7244C2.86388 28.1642 2.71374 26.4426 2.48312 24.8113C2.30171 23.4626 1.63496 17.6736 1.47474 16.1406C1.38162 15.1219 1.23867 14.1156 1.14555 13.0969C0.875681 10.359 0.667774 7.59408 0.466607 4.84469C0.437258 4.5443 0.446914 3.86772 0.454555 3.22885C0.449579 2.71544 0.610055 2.21406 0.91223 1.79895C1.2144 1.38384 1.64221 1.07707 2.13232 0.924037C4.27275 0.296949 5.12331 3.5652 5.23653 3.9949C5.46572 5.35755 5.59695 6.73487 5.62921 8.11628C5.69503 9.00872 5.60188 9.83214 5.70069 10.6734C6.07503 13.8632 6.5137 17.0528 6.90489 20.2813C7.1875 22.7098 10.7693 42.5482 11.2674 44.625C11.7655 46.7018 17.6329 67.729 18.6269 71.073C18.7549 71.3673 18.8253 71.6775 18.9456 71.9752C22.6918 81.5827 26.2022 91.2836 30.1454 100.815C36.1709 115.387 42.354 129.912 48.6946 144.39C55.5862 157.714 61.5281 165.022 63.7488 166.93C64.7027 167.979 68.439 168.988 68.2656 167.065L67.3998 165.074C64.2565 157.848 60.8586 150.714 58.075 143.341C56.5841 139.384 56.0769 134.999 58.3625 130.873C59.8816 128.14 62.5574 127.05 65.2273 126.708C68.2751 126.304 70.7806 127.977 72.1871 130.893C76.187 139.22 76.5975 143.15 76.8494 145.444C77.2005 147.97 77.3426 150.521 77.2743 153.07C77.0981 155.941 76.7143 158.795 76.126 161.61C75.7956 163.265 74.9633 164.824 74.4675 166.458C74.3617 166.992 74.4345 167.546 74.6745 168.035C75.88 170.679 77.0699 173.33 78.407 175.917C79.3977 177.835 80.5168 179.688 81.6281 181.544C82.5033 183.005 83.9801 185.384 84.8984 186.817C85.8167 188.251 86.7262 189.707 87.664 191.058C89.1549 193.173 90.6458 195.287 92.2249 197.308C94.0105 199.571 95.8194 201.824 97.808 203.897C99.5918 205.657 101.466 207.323 103.424 208.887C103.554 208.997 103.705 209.078 103.868 209.127C104.538 209.364 105.273 209.329 105.916 209.028C106.333 208.763 106.817 208.625 107.311 208.631C107.804 208.637 108.285 208.787 108.695 209.063C108.861 209.213 108.989 209.402 109.066 209.612C109.143 209.822 109.167 210.049 109.137 210.271ZM71.0534 160.832C71.2953 160.115 71.4972 159.384 71.6582 158.644C72.0431 156.183 72.3528 147.197 71.9975 145.279C71.5316 142.624 70.8066 140.021 69.8328 137.508C69.3858 136.215 68.8395 134.959 68.1988 133.751C67.7136 132.943 66.9304 132.357 66.0178 132.12C65.1051 131.883 64.136 132.014 63.3188 132.484C62.3493 133.072 62.0864 133.886 61.8981 135.571C61.7196 137.813 62.0276 140.067 62.801 142.178C65.1072 148.009 70.6805 160.166 71.0921 160.816L71.0534 160.832Z" fill="#7DD13A"/>
</svg>
